<svg version="1.1" xmlns="http://www.w3.org/2000/svg" xmlns:xlink="http://www.w3.org/1999/xlink" x="0px" y="0px" style="enable-background:new 0 0 710.14 372.73;" xml:space="preserve" viewBox="122.68 62.5 427.3 268.23">
	<style type="text/css">
		.st0{fill:#C9DDDE;}
		.st1{fill:#89BCBC;}
		.st2{fill:#FFFFFF;}
		.st3{fill:#009491;}
		.st4{fill:#018F8B;}
		.st5{fill:#FFFFFF;}
	</style>
	<g>
		<g>
			<path class="st0" d="M169.04,96.35c3.77-5.54,8.63-10.28,14.22-13.9c-5.91-8.5-15.94-15.26-29.45-19.49     c-5.07-1.59-10.47,1.24-12.05,6.31c-1.58,5.07,1.24,10.47,6.31,12.05C154.94,83.47,165.67,88.06,169.04,96.35z"/>
			<path class="st1" d="M208.66,82.83c-16.4,0-30.88,10.64-37.02,25.37c1.06,0.39,2.11,0.81,3.15,1.28     c6.53,2.94,12.02,7.23,16.26,12.46c0.99-9.65,9.74-16.66,17.62-16.66c6.2,0,11.22-5.02,11.22-11.22     C219.89,87.86,214.86,82.83,208.66,82.83z"/>
		</g>
		<g>
			<path class="st2" d="M504.89,107.22h-44.71v23.97c-11.22-14.56-28.82-23.97-48.58-23.97h-45.91h-1.67h-87.06v28.21h30.26v94.42       h28.21v-94.42h28.59v33.86h28.21v-33.86h19.37c18.25,0,33.1,14.85,33.1,33.1s-14.85,33.1-33.1,33.1l-19.22,0v28.21h19.22v0       c19.76,0,37.36-9.41,48.58-23.97v23.97h28.21v-32.52h16.5c24.84,0,45.06-20.21,45.06-45.06       C549.95,127.43,529.73,107.22,504.89,107.22z M504.89,169.12h-16.5v-33.69h16.5c9.29,0,16.84,7.56,16.84,16.84       C521.73,161.56,514.17,169.12,504.89,169.12z"/>
			<path class="st2" d="M221.49,143.55c-8.13,17.27-12.1,22-18.43,22c-5.8,0-10.13-3.49-10.13-6.61h-28.21       c0,19.2,17.2,34.83,38.35,34.83c25.97,0,36.37-22.08,43.96-38.2c4.6-9.77,9.93-15.51,17.41-18.21v-29.07       C245.17,111.67,231.04,123.27,221.49,143.55z"/>
			<path class="st2" d="M277.19,149.47c-5.28,0-9.56,4.28-9.56,9.56c0,5.28,4.28,9.56,9.56,9.56c5.28,0,9.56-4.28,9.56-9.56       C286.75,153.76,282.47,149.47,277.19,149.47z"/>
		</g>
		<g>
			<path class="st3" d="M160.47,141.36c2.35,1.06,5.15,3.24,5.15,7.62h28.21c0-14.53-8.35-27.31-21.8-33.35      c-14.73-6.62-32.23-3.8-44.59,7.18c-5.83,5.17-6.36,14.09-1.18,19.91c5.17,5.83,14.09,6.35,19.91,1.18      C151.12,139.51,156.97,139.79,160.47,141.36z"/>
		</g>
		<rect x="171.64" y="251.65" class="st4" width="372.64" height="79.06"/>
		<g>
			<path class="st5" d="M237.44,291.18v21.56h-9.05v-40.35h9.11l9.22,23.75l9.69-23.75h8.65v40.35H256l0.23-22.66l-6.75,17.76h-6.11     L237.44,291.18z"/>
			<path class="st5" d="M295.9,303.17h-10.78l-2.42,9.57h-9.57l12.68-40.35h9.4l12.62,40.35h-9.45L295.9,303.17z M287.36,296.26     h6.34l-3.17-13.14L287.36,296.26z"/>
			<path class="st5" d="M335.27,312.74l-10.2-22.89v22.89h-9.05v-40.35h9.05l10.2,23.87v-23.87h9.05v40.35H335.27z"/>
			<path class="st5" d="M375.17,303.17h-10.78l-2.42,9.57h-9.57l12.68-40.35h9.4l12.62,40.35h-9.45L375.17,303.17z M366.63,296.26     h6.34l-3.17-13.14L366.63,296.26z"/>
			<path class="st5" d="M422.44,298.68c0,6.63-3.8,14.41-13.66,14.41c-10.2,0-16.08-7.15-16.08-20.46     c0-13.26,5.82-20.58,15.97-20.58c11.88,0,13.72,12.11,13.72,14.18l-8.42,1.33c0,0,0.06-7.32-5.19-7.32     c-4.04,0-6.63,3.98-6.63,12.39c0,8.47,2.83,12.28,6.86,12.28c3.92,0,5.01-3.23,5.01-6.23v-0.4h-6.86v-6.8h15.28V298.68z"/>
			<path class="st5" d="M432.53,312.74v-40.35h22.94v7.38h-13.89v9.34h10.2v7.26h-10.2v8.99h13.89v7.38H432.53z"/>
			<path class="st5" d="M495.25,312.57c0,0-1.33,0.46-4.44,0.46c-11.64,0-7.67-14.76-14.64-14.76h-1.61v14.47h-9.05v-40.35h12.97     c9.34,0,14.07,3.69,14.07,12.97c0,5.94-3.46,9.05-5.36,10.2c2.71,3.63,2.48,9.92,6.51,9.92h1.56V312.57z M477.5,291.3     c3.63,0,6.17-1.96,6.17-5.65s-2.08-5.88-5.53-5.88h-3.57v11.53H477.5z"/>
		</g>
	</g>
</svg>